<svg width="24" height="24" viewBox="0 0 24 24" fill="none" xmlns="http://www.w3.org/2000/svg">
<path d="M17.9888 7.7499C17.7263 7.5097 17.44 7.29605 17.1339 7.1124L16.4012 6.6728C15.7216 6.265 14.9744 5.9825 14.195 5.8387L13.9331 5.7904C12.523 5.53015 11.1644 5.04805 9.90746 4.36311C9.79251 3.85511 9.39661 3.43228 8.85481 3.30917C8.10311 3.13836 7.35521 3.60929 7.18441 4.36103C7.01361 5.11275 7.48451 5.86065 8.23626 6.03145C8.29926 6.04575 8.36226 6.05555 8.42486 6.0611C9.25231 6.8704 9.95211 7.80175 10.4995 8.82335" stroke="#333333" stroke-width="2" stroke-linecap="round" stroke-linejoin="round"/>
<path d="M5.65335 12.5096C5.52235 12.6506 4 14.3253 4 16C4 17.75 4.77922 18.5 5.5 19C6.2208 19.5 7.3604 20 8.3052 20C9.25 20 14.25 20.5 16.5 20C18.75 19.5 19 19 20 18C20.5408 17.4592 20.941 16.6991 21.1946 16.115C21.4401 15.5495 21.6327 14.9622 21.7824 14.3642C21.9623 13.6461 22.1442 12.6149 22 11.75C21.75 10.25 21 9.25 18.5 8C16.1979 6.84895 14.1766 7.39379 13.871 7.48724C13.8434 7.49569 13.8176 7.50475 13.7903 7.51435C13.3903 7.6558 10.1581 8.81269 8.7857 9.74999C7.38435 10.707 5.8046 12.3509 5.6714 12.4905C5.66465 12.4975 5.66005 12.5024 5.65335 12.5096Z" stroke="#333333" stroke-width="2" stroke-linecap="round" stroke-linejoin="round"/>
<path d="M3.0518 10.0049C2.98919 9.99942 2.92622 9.98962 2.86322 9.97527C2.11149 9.80447 1.64056 9.05662 1.81137 8.30487C1.98218 7.55312 2.73005 7.08222 3.48178 7.25302C4.02355 7.37612 4.41948 7.79897 4.53444 8.30697C5.79129 8.99187 7.14994 9.47402 8.56009 9.73422L8.82189 9.78252C9.60129 9.92637 10.3485 10.2089 11.0281 10.6166L11.7608 11.0562C12.2507 11.3502 12.6901 11.721 13.0622 12.1546L13.2649 12.3908C13.8768 13.1039 14.1555 14.0441 14.0311 14.9754L14.017 15.0813C13.9323 15.7158 13.6452 16.3061 13.1983 16.7646L12.9677 17.0012C12.2052 17.7835 11.1079 18.1429 10.0302 17.9633C9.19674 17.8244 8.42514 17.4356 7.81759 16.8483L7.44809 16.4912C7.15099 16.204 6.89344 15.8786 6.68219 15.5235L5.59594 13.6976L5.27919 13.0626C4.71168 11.9247 3.95834 10.8916 3.0518 10.0049Z" stroke="#333333" stroke-width="2" stroke-linecap="round" stroke-linejoin="round"/>
</svg>
